<svg xmlns="http://www.w3.org/2000/svg" width="1200" height="627" viewBox="0 0 1200 627" role="img" aria-label="vLLM-LITE: Continuous batching, prefix caching, speculation, and honest limits.">

  <defs>
    <linearGradient id="li-vllm-lite-panel" x1="0" y1="0" x2="1" y2="1">
      <stop stop-color="#071319"/><stop offset=".62" stop-color="#0D2028"/><stop offset="1" stop-color="#102B34"/>
    </linearGradient>
    <pattern id="li-vllm-lite-grid" width="24" height="24" patternUnits="userSpaceOnUse">
      <path d="M24 0H0V24" fill="none" stroke="#25424B" stroke-opacity=".24"/>
    </pattern>
    <filter id="li-vllm-lite-glow" x="-100%" y="-100%" width="300%" height="300%">
      <feGaussianBlur stdDeviation="4" result="b"/><feMerge><feMergeNode in="b"/><feMergeNode in="SourceGraphic"/></feMerge>
    </filter>
  </defs>
  <style>.display{font-family:Inter, ui-sans-serif, -apple-system, BlinkMacSystemFont, 'Segoe UI', sans-serif}.utility{font-family:ui-monospace, SFMono-Regular, 'SF Mono', Menlo, Consolas, 'Liberation Mono', monospace}</style>
  <rect width="1200" height="627" fill="url(#li-vllm-lite-panel)"/><rect width="1200" height="627" fill="url(#li-vllm-lite-grid)"/>
  <rect x="1" y="1" width="1198" height="625" fill="none" stroke="#25424B"/>
  <rect x="0" y="0" width="13" height="627" fill="#FFB45E"/>
  <text x="70" y="78" class="utility" font-size="18" letter-spacing="3" fill="#FFB45E">M-04 // PAGED INFERENCE SCHEDULER</text>
  <text x="70" y="195" class="display" font-size="74" font-weight="790" letter-spacing="-3" fill="#D8E5E8">vLLM-LITE</text>
  <text x="70" y="248" class="utility" font-size="19" fill="#789098">Continuous batching, prefix caching, speculation, and honest limits.</text>
  <path d="M70 342H1100" stroke="#25424B" stroke-width="5"/><path d="M70 342H1100" stroke="#FFB45E" stroke-width="3" stroke-dasharray="7 22"/>
  <g class="utility" font-size="15" letter-spacing="1" fill="#D8E5E8">
    <text x="70" y="384">CLAIM</text><text x="280" y="384">ATTACK</text><text x="490" y="384">ORACLE</text><text x="700" y="384">BOUNDARY</text><text x="930" y="384">RECEIPT</text>
  </g>
  <g><circle cx="93" cy="342" r="9" fill="#72E4DA"/><circle cx="303" cy="342" r="9" fill="#FF6B7E"/><circle cx="513" cy="342" r="9" fill="#FFB45E"/><circle cx="723" cy="342" r="9" fill="#B39BFF"/><circle cx="953" cy="342" r="9" fill="#7CE7A6"/></g>
  <rect x="70" y="446" width="1060" height="94" rx="10" fill="#0D2028" stroke="#25424B"/>
  <circle cx="111" cy="493" r="10" fill="#FFB45E"/><circle cx="111" cy="493" r="22" fill="none" stroke="#FFB45E" opacity=".58"/>
  <text x="150" y="502" class="utility" font-size="18" letter-spacing="1" fill="#D8E5E8">90 TESTS  /  94% KV USE  /  2.9× THROUGHPUT</text>
  <text x="70" y="590" class="utility" font-size="13" letter-spacing="2" fill="#789098">LIVE PROOF  /  SOURCE  /  TESTS  /  LIMITS</text>
  <text x="1130" y="590" text-anchor="end" class="utility" font-size="13" letter-spacing="1.5" fill="#FFB45E">OPEN →</text>
</svg>
